<svg width="111" height="16" viewBox="0 0 111 16" fill="none" xmlns="http://www.w3.org/2000/svg">
    <path id="Arrow 1" d="M110.354 8.35356C110.549 8.1583 110.549 7.84172 110.354 7.64646L107.172 4.46448C106.976 4.26921 106.66 4.26921 106.464 4.46448C106.269 4.65974 106.269 4.97632 106.464 5.17158L109.293 8.00001L106.464 10.8284C106.269 11.0237 106.269 11.3403 106.464 11.5355C106.66 11.7308 106.976 11.7308 107.172 11.5355L110.354 8.35356ZM-4.37114e-08 8.5L4.58333 8.5L4.58333 7.5L4.37114e-08 7.5L-4.37114e-08 8.5ZM13.75 8.5L22.9167 8.5L22.9167 7.5L13.75 7.5L13.75 8.5ZM32.0833 8.5L41.25 8.5L41.25 7.5L32.0833 7.5L32.0833 8.5ZM50.4167 8.5L59.5833 8.50001L59.5833 7.50001L50.4167 7.5L50.4167 8.5ZM68.75 8.50001L77.9167 8.50001L77.9167 7.50001L68.75 7.50001L68.75 8.50001ZM87.0833 8.50001L96.25 8.50001L96.25 7.50001L87.0833 7.50001L87.0833 8.50001ZM105.417 8.50001L110 8.50001L110 7.50001L105.417 7.50001L105.417 8.50001ZM110.707 8.70712C111.098 8.31659 111.098 7.68343 110.707 7.2929L104.343 0.928941C103.953 0.538417 103.319 0.538417 102.929 0.928941C102.538 1.31947 102.538 1.95263 102.929 2.34315L108.586 8.00001L102.929 13.6569C102.538 14.0474 102.538 14.6806 102.929 15.0711C103.319 15.4616 103.953 15.4616 104.343 15.0711L110.707 8.70712ZM-8.74228e-08 9L4.58333 9L4.58333 7L8.74228e-08 7L-8.74228e-08 9ZM13.75 9L22.9167 9L22.9167 7L13.75 7L13.75 9ZM32.0833 9L41.25 9L41.25 7L32.0833 7L32.0833 9ZM50.4167 9L59.5833 9.00001L59.5833 7.00001L50.4167 7L50.4167 9ZM68.75 9.00001L77.9167 9.00001L77.9167 7.00001L68.75 7.00001L68.75 9.00001ZM87.0833 9.00001L96.25 9.00001L96.25 7.00001L87.0833 7.00001L87.0833 9.00001ZM105.417 9.00001L110 9.00001L110 7.00001L105.417 7.00001L105.417 9.00001Z" fill="white" fill-opacity="0.3"/>
</svg>
