<?xml version="1.0" encoding="UTF-8"?>
<svg id="_Шар_1" width="100%" height="100%" data-name=" Шар 1" xmlns="http://www.w3.org/2000/svg" viewBox="0 0 531.1 283.76">
  <defs>
    <style>
      .cls-1 {
        stroke-width: 0px;
      }
    </style>
  </defs>
  <path class="cls-1" d="M16.79,72.76c2.71-4.46,7.53-12.05,12.03-17.28,5.05-5.88,10.11-10.55,14.58-14.18,0,0,16.84-14.03,39.56-22.9C131.1-.4,229.11-.09,268.51.02c48.4.13,110.72.25,161.72,13.3,17.46,4.46,42.73,12.78,63.91,33.52,3.12,3.06,9.55,9.7,15.97,19.44,16.09,24.36,18.83,47.81,20.17,60.56,2.3,21.88-.76,38.78-2.48,47.91-3.04,16.1-7.51,27.45-8.84,30.75-2.93,7.2-7.25,17.71-16.12,29.56-3.34,4.47-10,12.72-20.16,21.05-4.37,3.58-22.4,17.85-47.36,24.21-34.61,8.81-63.99-1.62-72.18-4.62-18.87-6.9-37.91-19.11-62.72-35.03-16.61-10.66-26.16-14.19-34.9-13.75-10.59.53-16.17,1.16-37.09,14.51-49.13,31.34-54.7,32.66-72.97,38.6-16.41,5.33-31.66,3.41-34.46,3.3-4.64-.18-13.45-.78-23.48-3.11-39.63-9.2-63.25-37.25-66.13-40.77-10.01-12.23-14.84-23.34-18.39-31.52-2.44-5.6-10.28-24.58-12.42-50.9-1.64-20.16.8-35.59,1.67-40.58,3.54-20.3,9.15-33.5,14.57-43.68Z"/>
</svg>